name Walk6.mot
datacolumns 19
datarows 20
range 2.37000000 2.38900000
endheader

                time	   L_ground_force_vx	   L_ground_force_vy	   L_ground_force_vz	   L_ground_force_px	   L_ground_force_py	   L_ground_force_pz	   R_ground_force_vx	   R_ground_force_vy	   R_ground_force_vz	   R_ground_force_px	   R_ground_force_py	   R_ground_force_pz	   L_ground_torque_x	   L_ground_torque_y	   L_ground_torque_z	   R_ground_torque_x	   R_ground_torque_y	   R_ground_torque_z	
          2.37000000	         15.25508525	        715.68017544	         32.79647599	         -0.17742720	          0.00000000	         -0.03437903	          0.00689767	          0.11110138	         -0.00142275	          0.00018971	          0.00000000	          0.00006463	          0.00000000	          0.74983419	          0.00000000	          0.00000000	         -0.00114630	          0.00000000	
          2.37100000	         15.81771744	        717.33928436	         32.95320796	         -0.17714337	          0.00000000	         -0.03436850	          0.00658487	          0.12064723	         -0.00144732	          0.00020142	          0.00000000	          0.00006849	          0.00000000	          0.73973192	          0.00000000	          0.00000000	         -0.00108255	          0.00000000	
          2.37200000	         16.38799846	        719.01806855	         33.11020699	         -0.17686523	          0.00000000	         -0.03435757	          0.00621581	          0.13058187	         -0.00146820	          0.00021338	          0.00000000	          0.00007243	          0.00000000	          0.72974751	          0.00000000	          0.00000000	         -0.00100840	          0.00000000	
          2.37300000	         16.96596204	        720.71606506	         33.26717616	         -0.17659275	          0.00000000	         -0.03434621	          0.00578679	          0.14090039	         -0.00148495	          0.00022558	          0.00000000	          0.00007643	          0.00000000	          0.71984990	          0.00000000	          0.00000000	         -0.00092320	          0.00000000	
          2.37400000	         17.55164289	        722.43279445	         33.42382389	         -0.17632592	          0.00000000	         -0.03433441	          0.00529400	          0.15159586	         -0.00149713	          0.00023797	          0.00000000	          0.00008049	          0.00000000	          0.71000850	          0.00000000	          0.00000000	         -0.00082627	          0.00000000	
          2.37500000	         18.14507852	        724.16776352	         33.57986588	         -0.17606470	          0.00000000	         -0.03432216	          0.00473356	          0.16265912	         -0.00150426	          0.00025054	          0.00000000	          0.00008459	          0.00000000	          0.70019339	          0.00000000	          0.00000000	         -0.00071692	          0.00000000	
          2.37600000	         18.74631114	        725.92046784	         33.73502644	         -0.17580906	          0.00000000	         -0.03430943	          0.00410148	          0.17407868	         -0.00150583	          0.00026323	          0.00000000	          0.00008873	          0.00000000	          0.69037501	          0.00000000	          0.00000000	         -0.00059445	          0.00000000	
          2.37700000	         19.35538965	        727.69039409	         33.88903970	         -0.17555897	          0.00000000	         -0.03429622	          0.00339373	          0.18584046	         -0.00150134	          0.00027602	          0.00000000	          0.00009289	          0.00000000	          0.68052369	          0.00000000	          0.00000000	         -0.00045814	          0.00000000	
          2.37800000	         19.97237141	        729.47702171	         34.04165108	         -0.17531438	          0.00000000	         -0.03428250	          0.00260620	          0.19792771	         -0.00149023	          0.00028886	          0.00000000	          0.00009704	          0.00000000	          0.67060907	          0.00000000	          0.00000000	         -0.00030727	          0.00000000	
          2.37900000	         20.59732381	        731.27982388	         34.19261875	         -0.17507526	          0.00000000	         -0.03426829	          0.00173473	          0.21032074	         -0.00147192	          0.00030170	          0.00000000	          0.00010119	          0.00000000	          0.66059995	          0.00000000	          0.00000000	         -0.00014112	          0.00000000	
          2.38000000	         21.23032516	        733.09826766	         34.34171522	         -0.17484156	          0.00000000	         -0.03425358	          0.00077510	          0.22299678	         -0.00144585	          0.00031449	          0.00000000	          0.00010530	          0.00000000	          0.65046440	          0.00000000	          0.00000000	          0.00004106	          0.00000000	
          2.38100000	         21.87146488	        734.93181359	         34.48872854	         -0.17461324	          0.00000000	         -0.03423838	         -0.00027689	          0.23592980	         -0.00141137	          0.00032716	          0.00000000	          0.00010935	          0.00000000	          0.64017030	          0.00000000	          0.00000000	          0.00024000	          0.00000000	
          2.38200000	         22.52084305	        736.77991498	         34.63346325	         -0.17439024	          0.00000000	         -0.03422273	         -0.00142550	          0.24909024	         -0.00136786	          0.00033966	          0.00000000	          0.00011334	          0.00000000	          0.62968602	          0.00000000	          0.00000000	          0.00045643	          0.00000000	
          2.38300000	         23.17856910	        738.64201769	         34.77574110	         -0.17417251	          0.00000000	         -0.03420665	         -0.00267496	          0.26244490	         -0.00131466	          0.00035192	          0.00000000	          0.00011722	          0.00000000	          0.61898102	          0.00000000	          0.00000000	          0.00069109	          0.00000000	
          2.38400000	         23.84476009	        740.51756057	         34.91540156	         -0.17396000	          0.00000000	         -0.03419018	         -0.00402948	          0.27595667	         -0.00125109	          0.00036387	          0.00000000	          0.00012098	          0.00000000	          0.60802651	          0.00000000	          0.00000000	          0.00094470	          0.00000000	
          2.38500000	         24.51953818	        742.40597690	         35.05230226	         -0.17375264	          0.00000000	         -0.03417336	         -0.00549322	          0.28958434	         -0.00117645	          0.00037542	          0.00000000	          0.00012459	          0.00000000	          0.59679593	          0.00000000	          0.00000000	          0.00121798	          0.00000000	
          2.38600000	         25.20302803	        744.30669693	         35.18631925	         -0.17355036	          0.00000000	         -0.03415621	         -0.00707029	          0.30328241	         -0.00109001	          0.00038650	          0.00000000	          0.00012803	          0.00000000	          0.58526538	          0.00000000	          0.00000000	          0.00151162	          0.00000000	
          2.38700000	         25.89535378	        746.21915068	         35.31734716	         -0.17335310	          0.00000000	         -0.03413880	         -0.00876472	          0.31700084	         -0.00099103	          0.00039701	          0.00000000	          0.00013125	          0.00000000	          0.57341373	          0.00000000	          0.00000000	          0.00182630	          0.00000000	
          2.38800000	         26.59663624	        748.14277019	         35.44529913	         -0.17316078	          0.00000000	         -0.03412113	         -0.01058040	          0.33068487	         -0.00087876	          0.00040686	          0.00000000	          0.00013423	          0.00000000	          0.56122260	          0.00000000	          0.00000000	          0.00216268	          0.00000000	
          2.38900000	         27.30698988	        750.07699010	         35.57010627	         -0.17297333	          0.00000000	         -0.03410325	         -0.01252111	          0.34427480	         -0.00075244	          0.00041594	          0.00000000	          0.00013693	          0.00000000	          0.54867605	          0.00000000	          0.00000000	          0.00252139	          0.00000000	
